<svg width="71" height="71" viewBox="0 0 71 71" fill="none" xmlns="http://www.w3.org/2000/svg">
<path d="M65.0833 35.5C65.0833 19.1996 51.8004 5.91669 35.5 5.91669C19.1995 5.91669 5.91663 19.1996 5.91663 35.5C5.91663 44.0792 9.61454 51.8004 15.472 57.2142C15.472 57.2438 15.472 57.2438 15.4425 57.2734C15.7383 57.5692 16.0933 57.8059 16.3891 58.0721C16.5666 58.22 16.7145 58.3679 16.892 58.4863C17.4245 58.93 18.0162 59.3442 18.5783 59.7584C18.7854 59.9063 18.9629 60.0246 19.17 60.1725C19.732 60.5571 20.3237 60.9121 20.945 61.2375C21.152 61.3559 21.3887 61.5038 21.5958 61.6221C22.1875 61.9475 22.8087 62.2434 23.4595 62.5096C23.6962 62.6279 23.9329 62.7463 24.1695 62.835C24.8204 63.1013 25.4712 63.3379 26.122 63.545C26.3587 63.6338 26.5954 63.7225 26.832 63.7817C27.542 63.9888 28.252 64.1663 28.962 64.3438C29.1691 64.4029 29.3762 64.4621 29.6129 64.4917C30.4412 64.6692 31.2695 64.7875 32.1275 64.8763C32.2458 64.8763 32.3641 64.9059 32.4825 64.9354C33.4883 65.0242 34.4941 65.0834 35.5 65.0834C36.5058 65.0834 37.5116 65.0242 38.4879 64.9354C38.6062 64.9354 38.7245 64.9059 38.8429 64.8763C39.7008 64.7875 40.5291 64.6692 41.3575 64.4917C41.5645 64.4621 41.7716 64.3734 42.0083 64.3438C42.7183 64.1663 43.4579 64.0184 44.1383 63.7817C44.375 63.6929 44.6116 63.6042 44.8483 63.545C45.4991 63.3084 46.1795 63.1013 46.8008 62.835C47.0375 62.7463 47.2741 62.6279 47.5108 62.5096C48.132 62.2434 48.7533 61.9475 49.3745 61.6221C49.6112 61.5038 49.8183 61.3559 50.0254 61.2375C50.617 60.8825 51.2087 60.5571 51.8004 60.1725C52.0075 60.0542 52.185 59.9063 52.392 59.7584C52.9837 59.3442 53.5458 58.93 54.0783 58.4863C54.2558 58.3384 54.4037 58.1904 54.5812 58.0721C54.9066 57.8059 55.232 57.5396 55.5279 57.2734C55.5279 57.2438 55.5279 57.2438 55.4983 57.2142C61.3854 51.8004 65.0833 44.0792 65.0833 35.5ZM50.1141 50.2029C42.097 44.8188 28.962 44.8188 20.8858 50.2029C19.5841 51.0609 18.5191 52.0667 17.6316 53.1613C13.135 48.6054 10.3541 42.3634 10.3541 35.5C10.3541 21.6254 21.6254 10.3542 35.5 10.3542C49.3745 10.3542 60.6458 21.6254 60.6458 35.5C60.6458 42.3634 57.865 48.6054 53.3683 53.1613C52.5104 52.0667 51.4158 51.0609 50.1141 50.2029Z" fill="#6F6F6F"/>
<path d="M35.5 20.5012C29.3763 20.5012 24.4062 25.4712 24.4062 31.595C24.4062 37.6004 29.11 42.4816 35.3521 42.6591C35.4408 42.6591 35.5592 42.6591 35.6183 42.6591C35.6775 42.6591 35.7662 42.6591 35.8254 42.6591C35.855 42.6591 35.8846 42.6591 35.8846 42.6591C41.8604 42.4521 46.5642 37.6004 46.5938 31.595C46.5938 25.4712 41.6237 20.5012 35.5 20.5012Z" fill="#6F6F6F"/>
</svg>
